HIERARCHY
ROOT hip
{
  OFFSET 55.4056 84.162 137.89
  CHANNELS 6 Xposition Yposition Zposition Zrotation Xrotation Yrotation
  JOINT abdomen
  {
    OFFSET 0 20.6881 -0.73152
    CHANNELS 3 Zrotation Xrotation Yrotation
    JOINT chest
    {
      OFFSET 0 11.7043 -0.48768
      CHANNELS 3 Zrotation Xrotation Yrotation
      JOINT neck
      {
        OFFSET 0 22.1894 -2.19456
        CHANNELS 3 Zrotation Xrotation Yrotation
        JOINT head
        {
          OFFSET -0.24384 7.07133 1.2192
          CHANNELS 3 Zrotation Xrotation Yrotation
          JOINT leftEye
          {
            OFFSET 4.14528 8.04674 8.04672
            CHANNELS 3 Zrotation Xrotation Yrotation
            End Site
            {
              OFFSET 1 0 0
            }
          }
          JOINT rightEye
          {
            OFFSET -3.6576 8.04674 8.04672
            CHANNELS 3 Zrotation Xrotation Yrotation
            End Site
            {
              OFFSET 1 0 0
            }
          }
        }
      }
      JOINT rCollar
      {
        OFFSET -2.68224 19.2634 -4.8768
        CHANNELS 3 Zrotation Xrotation Yrotation
        JOINT rShldr
        {
          OFFSET -8.77824 -1.95073 1.46304
          CHANNELS 3 Zrotation Xrotation Yrotation
          JOINT rForeArm
          {
            OFFSET -28.1742 -1.7115 0.48768
            CHANNELS 3 Zrotation Xrotation Yrotation
            JOINT rHand
            {
              OFFSET -22.5879 0.773209 7.07136
              CHANNELS 3 Zrotation Xrotation Yrotation
              JOINT rThumb1
              {
                OFFSET -1.2192 -0.487915 3.41376
                CHANNELS 3 Zrotation Xrotation Yrotation
                JOINT rThumb2
                {
                  OFFSET -3.37035 -0.52449 3.41376
                  CHANNELS 3 Zrotation Xrotation Yrotation
                  End Site
                  {
                    OFFSET -1.78271 -1.18214 1.43049
                  }
                }
              }
              JOINT rIndex1
              {
                OFFSET -7.75947 0.938293 5.60832
                CHANNELS 3 Zrotation Xrotation Yrotation
                JOINT rIndex2
                {
                  OFFSET -2.54057 -0.884171 1.56538
                  CHANNELS 3 Zrotation Xrotation Yrotation
                  End Site
                  {
                    OFFSET -1.62519 -0.234802 1.16502
                  }
                }
              }
              JOINT rMid1
              {
                OFFSET -8.24714 1.18213 3.41376
                CHANNELS 3 Zrotation Xrotation Yrotation
                JOINT rMid2
                {
                  OFFSET -3.10165 -0.590103 1.0647
                  CHANNELS 3 Zrotation Xrotation Yrotation
                  End Site
                  {
                    OFFSET -2.48547 -0.328903 0.83742
                  }
                }
              }
              JOINT rRing1
              {
                OFFSET -8.82822 0.546677 1.51678
                CHANNELS 3 Zrotation Xrotation Yrotation
                JOINT rRing2
                {
                  OFFSET -2.60934 -0.819778 -0.0198488
                  CHANNELS 3 Zrotation Xrotation Yrotation
                  End Site
                  {
                    OFFSET -2.33842 -0.294052 0.168128
                  }
                }
              }
              JOINT rPinky1
              {
                OFFSET -8.27202 -0.0477905 -0.4584
                CHANNELS 3 Zrotation Xrotation Yrotation
                JOINT rPinky2
                {
                  OFFSET -1.82734 -0.647385 -0.700984
                  CHANNELS 3 Zrotation Xrotation Yrotation
                  End Site
                  {
                    OFFSET -1.69225 -0.51767 -0.607171
                  }
                }
              }
            }
          }
        }
      }
      JOINT lCollar
      {
        OFFSET 2.68224 19.2634 -4.8768
        CHANNELS 3 Zrotation Xrotation Yrotation
        JOINT lShldr
        {
          OFFSET 8.77824 -1.95073 1.46304
          CHANNELS 3 Zrotation Xrotation Yrotation
          JOINT lForeArm
          {
            OFFSET 28.1742 -1.7115 0.48768
            CHANNELS 3 Zrotation Xrotation Yrotation
            JOINT lHand
            {
              OFFSET 22.5879 0.773209 7.07136
              CHANNELS 3 Zrotation Xrotation Yrotation
              JOINT lThumb1
              {
                OFFSET 1.2192 -0.487915 3.41376
                CHANNELS 3 Zrotation Xrotation Yrotation
                JOINT lThumb2
                {
                  OFFSET 3.37035 -0.52449 3.41376
                  CHANNELS 3 Zrotation Xrotation Yrotation
                  End Site
                  {
                    OFFSET 1.78271 -1.18214 1.43049
                  }
                }
              }
              JOINT lIndex1
              {
                OFFSET 7.75947 0.938293 5.60832
                CHANNELS 3 Zrotation Xrotation Yrotation
                JOINT lIndex2
                {
                  OFFSET 2.54057 -0.884171 1.56538
                  CHANNELS 3 Zrotation Xrotation Yrotation
                  End Site
                  {
                    OFFSET 1.62519 -0.234802 1.16502
                  }
                }
              }
              JOINT lMid1
              {
                OFFSET 8.24714 1.18213 3.41376
                CHANNELS 3 Zrotation Xrotation Yrotation
                JOINT lMid2
                {
                  OFFSET 3.10165 -0.590103 1.0647
                  CHANNELS 3 Zrotation Xrotation Yrotation
                  End Site
                  {
                    OFFSET 2.48547 -0.328903 0.83742
                  }
                }
              }
              JOINT lRing1
              {
                OFFSET 8.82822 0.546677 1.51678
                CHANNELS 3 Zrotation Xrotation Yrotation
                JOINT lRing2
                {
                  OFFSET 2.60934 -0.819778 -0.0198488
                  CHANNELS 3 Zrotation Xrotation Yrotation
                  End Site
                  {
                    OFFSET 2.33842 -0.294052 0.168128
                  }
                }
              }
              JOINT lPinky1
              {
                OFFSET 8.27202 -0.0477905 -0.4584
                CHANNELS 3 Zrotation Xrotation Yrotation
                JOINT lPinky2
                {
                  OFFSET 1.82734 -0.647385 -0.700984
                  CHANNELS 3 Zrotation Xrotation Yrotation
                  End Site
                  {
                    OFFSET 1.69225 -0.51767 -0.607171
                  }
                }
              }
            }
          }
        }
      }
    }
  }
  JOINT rButtock
  {
    OFFSET -8.77824 4.35084 1.2192
    CHANNELS 3 Zrotation Xrotation Yrotation
    JOINT rThigh
    {
      OFFSET 0 -1.70687 -2.19456
      CHANNELS 3 Zrotation Xrotation Yrotation
      JOINT rShin
      {
        OFFSET 0 -36.8199 0.73152
        CHANNELS 3 Zrotation Xrotation Yrotation
        JOINT rFoot
        {
          OFFSET 0.73152 -45.1104 -5.12064
          CHANNELS 3 Zrotation Xrotation Yrotation
          End Site
          {
            OFFSET -1.1221 -3.69964 12.103
          }
        }
      }
    }
  }
  JOINT lButtock
  {
    OFFSET 8.77824 4.35084 1.2192
    CHANNELS 3 Zrotation Xrotation Yrotation
    JOINT lThigh
    {
      OFFSET 0 -1.70687 -2.19456
      CHANNELS 3 Zrotation Xrotation Yrotation
      JOINT lShin
      {
        OFFSET 0 -36.8199 0.73152
        CHANNELS 3 Zrotation Xrotation Yrotation
        JOINT lFoot
        {
          OFFSET -0.73152 -45.1104 -5.12064
          CHANNELS 3 Zrotation Xrotation Yrotation
          End Site
          {
            OFFSET 1.1221 -3.69964 12.103
          }
        }
      }
    }
  }
}
MOTION
Frames:	5
Frame Time:	0.00833333
49.8702 85.5068 -174.199 -1.70036 0.00694356 0.0323283 2.23593 -0.000458248 0.0604463 0.615846 0.00897711 0.106599 -1.01746e-014 7.95139e-016 -7.70291e-016 -3.06719e-014 3.18055e-015 -2.21459e-015 -0 0 0 -0 0 0 -5.22047e-015 -1.52195e-016 -1.98785e-016 -1.04565e-013 -3.23025e-015 -7.15625e-015 -1.83518e-012 4.29176e-013 -1.36764e-013 -2.0714e-011 -1.13476e-012 -1.54575e-012 -4.88958e-011 -1.53224e-012 -3.62265e-012 -8.44417e-011 -2.64304e-012 -6.24899e-012 -4.88927e-011 -1.53303e-012 -3.63219e-012 7.73091 5.47488 0.417314 -4.88981e-011 -1.53303e-012 -3.61947e-012 2.90554 0.965183 0.102902 -4.88947e-011 -1.53273e-012 -3.61629e-012 10.2786 0.731801 0.0259123 -4.89028e-011 -1.53064e-012 -3.60357e-012 2.22167 -0.733487 -0.20892 -5.41485e-015 -1.53359e-016 -4.96962e-016 -1.07406e-013 -3.42904e-015 -8.94531e-015 -1.79249e-012 -6.64736e-013 -1.24042e-013 -2.07376e-011 -4.94228e-014 -1.52985e-012 -4.88555e-011 -1.54789e-012 -3.59721e-012 -8.43586e-011 -2.67167e-012 -6.22514e-012 -4.88585e-011 -1.54933e-012 -3.59085e-012 -7.73091 5.47488 -0.417314 -4.88525e-011 -1.54873e-012 -3.60993e-012 -2.90554 0.965183 -0.102902 -4.8856e-011 -1.54813e-012 -3.60436e-012 -10.2786 0.731801 -0.0259123 -4.88458e-011 -1.54336e-012 -3.61629e-012 -2.22167 -0.733487 0.20892 -2.03217e-016 0 -3.88251e-019 2.21197 -7.80167 -0.224267 0.00521918 8.55963 0.135859 -0.549061 -0.766563 0.0462611 2.03217e-016 0 3.88251e-019 1.18436 -1.92859 -0.00254834 0.00908798 -2.07858 0.0749542 0.5133 3.99847 -0.140505 
44.936 84.9415 -180.776 -11.9938 19.2529 -25.4864 2.74552 -2.79578 0.245659 -0.364028 0.244069 0.156334 0.0644256 3.063 -0.0735394 1.3768 -6.56811 0.118535 -0 0 0 -0 0 0 1.97212e-015 5.58086e-013 3.24306e-015 2.81022 -7.73691 -1.66116 -2.93792 -1.15298 4.76745 0.0615886 5.50996 0.761502 -2.86061e-010 -2.96409e-009 -2.16145e-010 -4.97218e-010 -5.11678e-009 -3.68675e-010 -2.86059e-010 -2.96409e-009 -2.16157e-010 7.73091 5.47488 0.417314 -2.86064e-010 -2.96409e-009 -2.16145e-010 2.90554 0.965183 0.102902 -2.86058e-010 -2.96409e-009 -2.16143e-010 10.2786 0.731801 0.0259123 -2.86067e-010 -2.96409e-009 -2.16134e-010 2.22167 -0.733487 -0.20892 1.83831e-015 5.58084e-013 2.96973e-015 1.19703 -2.50198 -0.684755 2.97029 -1.17043 -4.81576 -0.00622413 -1.75013 0.245551 1.52823e-010 4.61366e-010 -3.14407e-010 2.66671e-010 7.91824e-010 -5.44322e-010 1.52821e-010 4.61366e-010 -3.14402e-010 -7.73091 5.47488 -0.417314 1.52826e-010 4.61366e-010 -3.14417e-010 -2.90554 0.965183 -0.102902 1.52821e-010 4.61367e-010 -3.14413e-010 -10.2786 0.731801 -0.0259123 1.52832e-010 4.61371e-010 -3.14425e-010 -2.22167 -0.733487 0.20892 -2.03217e-016 0 -3.88251e-019 0.658191 -5.62345 4.33784 0.00465786 7.81641 0.0827811 -1.19362 -6.96301 -8.04837 2.03217e-016 0 3.88251e-019 5.00585 0.032983 -2.71488 0.00167507 -2.51098 0.00591584 0.764595 -4.19534 2.40321 
44.9435 84.9449 -180.852 -5.49274 26.6141 -58.051 3.30826 -5.74639 0.438524 -1.42388 0.486979 0.207697 0.149532 6.3024 -0.150082 2.8664 -13.5113 0.252765 -0 0 0 -0 0 0 1.02749e-014 1.20849e-012 6.94193e-015 5.29517 -15.8946 -3.51572 -5.83472 -2.34458 9.81162 -0.0354731 11.3384 1.59125 -5.49601e-010 -6.25684e-009 -4.53575e-010 -9.55921e-010 -1.08011e-008 -7.73609e-010 -5.496e-010 -6.25683e-009 -4.5359e-010 7.73091 5.47488 0.417314 -5.49604e-010 -6.25683e-009 -4.53579e-010 2.90554 0.965183 0.102902 -5.49595e-010 -6.25683e-009 -4.53578e-010 10.2786 0.731801 0.0259123 -5.49605e-010 -6.25683e-009 -4.53572e-010 2.22167 -0.733487 -0.20892 1.02068e-014 1.20849e-012 6.69345e-015 2.41915 -5.13551 -1.40727 5.89834 -2.38084 -9.915 0.0035365 -3.60014 0.505891 3.76446e-010 9.79132e-010 -6.61717e-010 6.559e-010 1.68052e-009 -1.14561e-009 3.76445e-010 9.79132e-010 -6.61714e-010 -7.73091 5.47488 -0.417314 3.76448e-010 9.79133e-010 -6.61724e-010 -2.90554 0.965183 -0.102902 3.76443e-010 9.79133e-010 -6.61723e-010 -10.2786 0.731801 -0.0259123 3.76453e-010 9.79136e-010 -6.61734e-010 -2.22167 -0.733487 0.20892 -2.03217e-016 0 -3.88251e-019 -1.36456 -3.31083 9.12764 0.00258501 7.03214 0.0270588 -3.78238 -13.045 -16.9217 2.03217e-016 0 3.88251e-019 9.24377 2.0974 -5.58763 -0.00728365 -2.96738 -0.0671886 1.83678 -12.8123 5.20819 
44.9497 84.9423 -180.853 2.89451 16.0734 -81.7202 3.81945 -8.386 0.621856 -2.325 0.714248 0.25582 0.217126 9.18894 -0.223167 4.21625 -19.704 0.375242 -0 0 0 -0 0 0 1.63573e-014 1.67456e-012 1.01268e-014 6.98679 -23.1292 -5.37093 -8.24394 -3.36327 14.3246 -0.270584 16.5179 2.37189 -7.60392e-010 -8.88922e-009 -6.41189e-010 -1.32277e-009 -1.5345e-008 -1.09353e-009 -7.60392e-010 -8.8892e-009 -6.41207e-010 7.73091 5.47488 0.417314 -7.60395e-010 -8.88921e-009 -6.41197e-010 2.90554 0.965183 0.102902 -7.60383e-010 -8.8892e-009 -6.41196e-010 10.2786 0.731801 0.0259123 -7.60394e-010 -8.8892e-009 -6.41194e-010 2.22167 -0.733487 -0.20892 1.63447e-014 1.67456e-012 9.90313e-015 3.41041 -7.50162 -2.07003 8.32667 -3.41221 -14.4705 0.0264907 -5.25001 0.739411 5.5618e-010 1.38719e-009 -9.36026e-010 9.68732e-010 2.38082e-009 -1.62051e-009 5.56181e-010 1.3872e-009 -9.36024e-010 -7.73091 5.47488 -0.417314 5.56182e-010 1.3872e-009 -9.3603e-010 -2.90554 0.965183 -0.102902 5.56176e-010 1.3872e-009 -9.36031e-010 -10.2786 0.731801 -0.0259123 5.56187e-010 1.3872e-009 -9.36042e-010 -2.22167 -0.733487 0.20892 -2.03217e-016 0 -3.88251e-019 -3.48316 -1.27927 13.3986 -0.000619256 6.32996 -0.0227949 -7.77762 -17.8024 -25.3514 2.03217e-016 0 3.88251e-019 13.205 3.91632 -8.15873 -0.016282 -3.37576 -0.132309 3.556 -20.4114 7.97426 
44.9527 84.9405 -180.841 5.32673 2.21758 -89.5184 4.16526 -10.2484 0.776309 -2.82854 0.902419 0.295828 0.224988 11.1934 -0.285328 5.15033 -24.021 0.44832 -0 0 0 -0 0 0 1.68884e-014 1.67977e-012 1.20265e-014 7.73951 -28.1321 -6.86374 -9.83287 -4.04049 17.4886 -0.521866 20.0869 2.94596 -8.39311e-010 -9.87068e-009 -7.04264e-010 -1.45998e-009 -1.7038e-008 -1.2009e-009 -8.39311e-010 -9.87066e-009 -7.04283e-010 7.73091 5.47488 0.417314 -8.39314e-010 -9.87067e-009 -7.04273e-010 2.90554 0.965183 0.102902 -8.393e-010 -9.87066e-009 -7.04273e-010 10.2786 0.731801 0.0259123 -8.39312e-010 -9.87066e-009 -7.04273e-010 2.22167 -0.733487 -0.20892 1.69061e-014 1.67977e-012 1.18277e-014 3.94882 -9.20306 -2.56901 9.91614 -4.09062 -17.6443 0.0504999 -6.39994 0.903249 6.26196e-010 1.521e-009 -1.02783e-009 1.09057e-009 2.61011e-009 -1.77947e-009 6.26197e-010 1.521e-009 -1.02783e-009 -7.73091 5.47488 -0.417314 6.26197e-010 1.521e-009 -1.02783e-009 -2.90554 0.965183 -0.102902 6.26191e-010 1.521e-009 -1.02784e-009 -10.2786 0.731801 -0.0259123 6.26201e-010 1.521e-009 -1.02785e-009 -2.22167 -0.733487 0.20892 -2.03217e-016 0 -3.88251e-019 -5.11638 0.0984844 16.3968 -0.00376174 5.83302 -0.0583555 -11.5997 -20.6884 -31.6506 2.03217e-016 0 3.88251e-019 16.0815 5.16276 -9.95271 -0.0231713 -3.66408 -0.177353 5.24288 -25.6345 10.1487 
